<?xml version="1.0" encoding="UTF-8"?>
<svg xmlns="http://www.w3.org/2000/svg" version="1.1" viewBox="0 0 100 100">
  <defs>
    <style>
      .cls-1, .cls-2 {
        fill: #1b3b44;
      }

      .cls-3, .cls-4, .cls-5, .cls-6, .cls-2, .cls-7 {
        stroke: #1b3b44;
      }

      .cls-3, .cls-4, .cls-8, .cls-9 {
        fill: #1b3b44;
      }

      .cls-3, .cls-5, .cls-8, .cls-10, .cls-11, .cls-2 {
        stroke-linecap: round;
        stroke-linejoin: round;
      }

      .cls-3, .cls-5, .cls-8, .cls-10, .cls-11, .cls-2, .cls-7 {
        stroke-width: .2px;
      }

      .cls-12, .cls-5 {
        fill: #0c1b1e;
      }

      .cls-4, .cls-6 {
        stroke-width: .5px;
      }

      .cls-4, .cls-6, .cls-7 {
        stroke-miterlimit: 10;
      }

      .cls-13 {
        fill: #cc4e48;
      }

      .cls-14, .cls-6, .cls-7 {
        fill: #fff;
      }

      .cls-15 {
        fill: #0c1b1e;
      }

      .cls-16, .cls-11 {
        fill: #f26052;
      }

      .cls-8, .cls-10, .cls-11 {
        stroke: #000;
      }

      .cls-10 {
        fill: none;
      }

      .cls-17 {
        fill: #ddd;
      }

      .cls-18 {
        display: none;
      }
    </style>
  </defs>
  <!-- Generator: Adobe Illustrator 28.7.7, SVG Export Plug-In . SVG Version: 1.2.0 Build 194)  -->
  <g>
    <g id="Calque_1" class="cls-18">
      <g>
        <path class="cls-7" d="M81.2,54.9c-1-3.7,11.3-7.2,11.1-18.9-.2-11.7-4.4-13.4-5.5-14.3,1.2-8.3-.2-20.4-3.8-21.2s-10.8,9.4-12.9,11.5c-4.1-.9-11.5-1.2-14.2.7-7.9-7-13.5-11.4-16.5-10.8s-7,12.3-.7,24.8c-3.4,9-3.1,18.3,4.3,24.2,6.9,4.2-1.8,6.7-4.8,8.7s-18.1,9-17.4,23.8c-.6.1-1.8-.7-1.8-9.4s8.5-13.9,8.5-26-6.8-15.4-14.1-14.9c-4.1.5-3.1,7.8-.4,8.9s6.1,6.6,3.9,10.4c-2.8,7.7-13.1,15.7-7.9,31.4,5.2,15.8,17.6,15.5,20.9,15.8s24.2.2,25.8-.7,3-2.3,3.9-3c1,.8,2.1.4,2.9-.9,1.5,1.7,3.6,4.5,5.4,4.6s15.8-.5,18.7-.4c2.9,0,5-7.1-5.3-10.1-.4-3.9-1-7.8-1.6-10.1,3.4-8.3,2.9-10.5,1.4-24Z"/>
        <path class="cls-9" d="M63.2,32.3c.9,1.7,2.8.6,1.8-1.1s-2.5-3.6-4.8-3.4-4.3,2.3-5.5,3.8c-1.5,1.8.6,2.7,1.6,1.4.7-.6,2-2.6,4.1-2.6s2.6,1.4,2.9,1.9Z"/>
        <path class="cls-9" d="M79.1,29.8c-.9,1.3-2.5,0-1.6-1.4s2.2-2.8,4.2-2.6,3,.8,4,2c1.2,1.4-.1,2.7-.9,1.6-.6-.5-1.2-1.4-2.9-1.4s-2.3,1.1-2.7,1.8Z"/>
        <path class="cls-9" d="M69,35.2c-.4-1.9.4-2.7,3.7-2.7s3.2.8,3.2,1.6c0,1.3-1.6,1.3-1.5,2.7.1,1.5,1.4,3.2,3.7,3.2s2.2-.4,2.5-1,2.3-.1,1.2,1.6-4.2,8.4-9.1,8.5-8.8-5.3-9.5-6.9c-.7-1.6.2-3.5,2-1.8s3.1,1.1,4.3,1.1,4.2-1.1,3.3-4.4-3.7-.7-3.9-1.9Z"/>
        <path class="cls-14" d="M72.2,47.1c1.9,0,4.9-1.5,4.1-2.9-1.1-1.8-2.2-.2-4.1-.1s-4.6-1.4-4.7-.4,1.2,3.6,4.7,3.5Z"/>
        <path class="cls-9" d="M46,91.8c-1.8-2,5.8-1.7,3.3-10.1-2.6-8.4-9.2-6.9-10.7-6.8s-1.3-2.2,1.4-2.4,10.7,1.9,11.5,8.8c.8,6.9-1.6,7.8-1.1,8.7s5.6,0,5.9,3.5c.3,3.6.7,4.8-.8,4.5s.3-3.2-1.7-5.2c-2-2-6.8,0-7.7-1Z"/>
        <path class="cls-9" d="M49.1,97.7c0,.8,1.1,1.1,2.2.4s1-2.6.1-3.1-2.3,1.9-2.3,2.7Z"/>
        <path class="cls-9" d="M55,83.2c0-1.6,2-1.5,2.5,1s2.7,6.6,3.6,8.6-1,4-2.4,1.1-3.9-7.2-3.7-10.7Z"/>
        <path class="cls-9" d="M72.5,96.7c0-2.1,1.6-1.5,1.7,0s0,2.2-.8,2.2-.8-.4-.8-2.2Z"/>
        <path class="cls-9" d="M84.6,95.8c-.6-.7,0-2.1,1.1-.9s.8,2.9.6,3.6-2.1.3-1.6-.4.7-1.4,0-2.3Z"/>
        <path class="cls-1" d="M77.3,98.1c1,0,1.5-1.5.3-4.7s-4.2-3.7-4.5-5.1-1.8-8.3-1.9-11.9-2.3-1.7-2.2.2,1.6,11.3,2.1,12.5,4.2,4.1,4.9,5.3,0,3.7,1.3,3.7Z"/>
      </g>
    </g>
    <g id="Calque_2" class="cls-18">
      <g>
        <path class="cls-16" d="M83.6,38.3c0-5.2,6.6-4.8,5.9-10.1-.7-5.3-7-3.6-9.5-1.8s-9.3,8.7-1.7,21.3,14.7,17,4.7,28.5c-.8,0-1.6,0-1.6,0,0,0,.1-17.9-20.1-27.7-2.7-1.8-3.4-6.9-3.4-6.9,5.5-6.1,8.3-12.1,5.7-19.9,3.1-11,1.8-20.2.5-20.5s-4.2.4-13.1,10.1c-4-1.1-9.1-1.1-10.9-.5C36.3,3.4,31.3,1.2,29.7,1.2s-3.9,2.2-3.9,13.9c-1.2.9-2.9,3-3.1,4.6-3.7-.6-5.6.3-5.5,1.2,0,.9,1.1,1.1,4.2,1.4,0,.4-.2.9,0,1.4-2,0-3.6.5-3.7,1.5-.1,1,1.2,1.8,3.6,1.8,0,2.1.5,5.9,4.8,12.1.9,9.3-2.4,9.3-2.5,21.5.9,0,.2.6,1.6,3.4,1.3,2.7,6.4,10.7,9.8,11.3,1,.1,0-3.3,1.5-7.7.2-.6,1.8-.9,1.5.4-.3,1.3-.4,9.4-1.9,9.4s-.6,0-1-.3c-.7,2.2-3.1,13.2-5.9,14.8-2.8,1.6-6.8,3.4-4,6.9h2.1c-.2-2.1.7-3.4,1.4-3.9.7-.4,1,.1.3,1-.7.8-.6,2-.7,2.9h7.3c2,0,3.5-1.8,8.4-11,0,0,.2.1.3.2.7-1.9,5-11.3,5.3-14s1.2-1.1,1,.2c-.1,1.3-2.1,7.8-2.4,8.8-.4,1-.6,1.3,1.3,1.5,1.8.2,5.5.4,6.4.7.9.4.9.2.4-1s-2.3-8.2,1-12.7c3.5-4.7,6-6.6,7.3-6.3,1,.3.6,1.3-.1,1.8s-7,5.5-7.1,10.4c-.1,4.8,1.5,9.3,4.9,11.9,3.4,2.6,5.2,1.9,6.1,1.9s1.2,1.6-.3,1.5c-.9,0-3.1,0-5-.1-2.6,1.3-4.5,5.9-.6,6.4h9.9s4.8.4,8.4-13.8c13.6,0,15.7-12.2,15.7-19.9,0-11.7-12.6-21.6-12.6-26.8Z"/>
        <path class="cls-9" d="M28.5,94.9c-.7.4-1.6,1.8-1.4,3.9h1.1c0-1,0-2.1.7-2.9.7-.8.4-1.4-.3-1Z"/>
        <path class="cls-9" d="M65.4,94.9c-.7.4-1.6,1.8-1.4,3.9h1.1c0-1,0-2.1.7-2.9.7-.8.4-1.4-.3-1Z"/>
      </g>
      <path class="cls-9" d="M46.1,24.1c-.8,1-2.2.1-1.3-.9s2.1-2.1,3.9-1.7,3,1.9,3.8,2.9c1,1.3-.7,1.7-1.3.8-.5-.5-1.3-1.8-2.8-2s-2.1.7-2.3,1Z"/>
      <path class="cls-9" d="M32.7,21.9c.6,1.2,2,.2,1.5-1s-1.5-2.5-3.1-2.6-2.5.4-3.5,1.2c-1.1,1-.2,2.2.6,1.4.5-.4,1.1-1,2.5-.9s1.7,1.1,2,1.7Z"/>
      <path class="cls-9" d="M40.3,26.2c.3-1.6-.7-1.6-2.6-1.6s-2.7,0-2.7.6c0,1.1,2,1.6,1.9,2.8s-.2,2.8-2.1,2.8-3-.5-3.3-.9-1-.4-.6,1.2,2.8,7.2,6.7,7.3,7.2-4.4,7.7-5.7-.3-2.1-1.9-.8-2.1.5-3,.3-3-1.2-2.3-3.9,1.7-.9,2-1.9Z"/>
      <path class="cls-16" d="M38.3,36.9c-1.6,0-2.7-.1-2.5-1.2.4-1.8,1.3-1,2.9-1.3s4.1-1.3,4.2-.6-1.7,3.1-4.6,3Z"/>
      <g>
        <path class="cls-16" d="M57.1,87.3c-.6-.4-10.2-1.7-10.5-.9-.3.6-.4,2.3-1,2.9.2.4.3,1,.3,1.9-2.4,2.5-7.9,5.9-2.3,7.5,2.2,0,3.4,0,5.8,0,2.4,0,4.8-3.3,8-11.2,0-.2-.2-.3-.3-.3Z"/>
        <path class="cls-9" d="M68.1,91c-.9,0-2.6.7-6.1-1.9-3.4-2.6-5-7.1-4.9-11.9.1-4.9,6.4-10,7.1-10.4s1.2-1.5.1-1.8c-1.2-.4-3.8,1.6-7.3,6.3-3.3,4.5-1.5,11.4-1,12.7s.5,1.4-.4,1c-.9-.4-4.6-.6-6.4-.7-1.8-.2-1.6-.5-1.3-1.5.4-1,2.3-7.5,2.4-8.8.1-1.3-.7-2.9-1-.2s-4.6,12.1-5.3,14c.5.3,1,.6,1.4,1.3.6-.6.8-2.3,1-2.9.3-.8,10,.5,10.5.9,0,0,.2.2.3.3,0-.1,0-.2.1-.3,1.8,2.9,4.5,4.6,6.4,4.8-.4,0-.7.2-1.1.3,1.8,0,4,0,5,.1,1.5,0,1.2-1.5.3-1.5Z"/>
      </g>
      <path class="cls-16" d="M3.8,68.9c0,3.1,8.4,7.1,11,0,7.5,2,9.6,5.7,13.8,5.7.8.2,1.8,0,2.4,0-1.4-1.2-8.5-5.8-8-13.5-8.2-4-16.9-3.3-19.2,7.8"/>
      <path class="cls-9" d="M37.8,68c.3-1.3-1.3-1-1.5-.4-1.5,4.5-.4,7.9-1.5,7.7-3.3-.6-8.4-8.6-9.8-11.3-1.3-2.7-.6-3.4-1.6-3.4,0,.2,0,.4,0,.5,0,0-.2,0-.4-.1-.6,7.7,6.5,12.3,8,13.5,1.2.9,3.2,2.1,3.9,2.5.2.1.7.3,1,.3,1.5,0,1.6-8,1.9-9.4Z"/>
      <path class="cls-9" d="M32,97.2c0-1.5.4-1.9,1.2-2.4s1.3,0,.3.7-.5,1.2-.6,2.1c0,.8-.8,1-.8-.5Z"/>
      <path class="cls-9" d="M7.4,71.9c-.8-1-.8-2.6,2.5-4.1.7-.2.9.8-.3,1.5s-1.3,1-1.2,1.5-.3,2-1,1Z"/>
    </g>
    <g id="Calque_3" class="cls-18">
      <g>
        <path class="cls-8" d="M80,85.9c.5-6.6.8-19.4-8.4-31-6.3-9.4-15.4-12.2-15.2-18.5.3-8.2,1.5-5.9,1.5-11,0-5.2-1-5.3-1.5-7.1.4-3.4,1.4-15.8-1.6-17.1-2.6-.7-8.9,6.1-11.2,8.1-3.3-.8-9-.6-11.1,0-3.2-3.6-8.2-8.4-11.3-8s-1.4,14.6-1.2,17.2c-1.2,2.3-2.6,4.5-2,9.6s4.3,5.2,4.4,8.5-3.2,9.8-2.9,19c.2,8.2,2.6,11.5,3.4,12.6.3-.8,1-1,1.3-.2.4,1.4,4,7.3,12,11.4.7.3,1.2.1,1.2-.5,0-.6,1.1-11.5.8-12.7-.3-1.1,1.5-1.8,1.4,0,0,1.8-.5,11-1.1,13.2-.6,2.2-.9,9.3-.9,10.1s-1.5,1.6-2.3,2.3c-.8.7-1.9,1.3-2.3,2.5-.3,1.2.4,3-.7,4,0,0,0,0-.1,0,1.5,0,3.1,0,4.8,0-.3-1.5,0-3.8,1-4.5.9-.7.6.5.4,1.4s-.5,2.4-.1,3.1h0c1.5,0,3.1,0,4.6,0h0c1.5-1.5,2.4-2.3,2.9-3.3.5-1.1,4.8-13.5,5.1-14.1,0-2.3,1.6-12.9,10.6-17.7,1.4-.9,3.9-.1.6,1.8-3.3,1.9-9.8,8.6-8.8,15.6,1,7,3.4,7.9,4.2,8.2,1.6,0,13.4-.3,14.6-.5s.9,1.9-1.4,1.9-13,.2-16,.3c-5.1,0-7.9,4.3-4.8,7.8,0,0,0,0,0,0,11.2,0,21.5,0,22.5.1,2.2,0,14.3-1.9,7.5-12.9Z"/>
        <path class="cls-8" d="M31.3,96c0-1.3-.2-2,.3-3.2.6-1.2,1.3-1.6,1.5-2.6.3-1,.9-8.6.5-9.4-.3-.7-10.2-8.4-10.6-10.9h0c.1,4.9.7,18.9.8,21.1-3.9,1.1-7.3,4.6-3.6,7.5.5,0,1.5,0,2.8,0,0,0,0,0,0,0,.1-3.1.8-3.1,1.4-4.1s1.3,0,.7.6c-.6.5-1,2-.9,3.6,1.5,0,3.3,0,5.3,0,1-.9,1.6-1.4,1.7-2.6Z"/>
        <path class="cls-15" d="M33.1,94.5c.3-1.2,1.4-1.8,2.3-2.5.8-.7,2.3-1.6,2.3-2.3s.3-7.9.9-10.1c.6-2.2,1-11.4,1.1-13.2,0-1.8-1.7-1.1-1.4,0,.3,1.1-.8,12.1-.8,12.7,0,.6-.5.8-1.2.5-8-4.1-11.6-10.1-12-11.4-.2-.9-1-.6-1.3.2,0,.1.2.2.2.3,0,.3,0,.8,0,1.4h0c.3,2.6,10.2,10.2,10.6,10.9.3.7-.3,8.4-.5,9.4-.3,1-1,1.4-1.5,2.6-.6,1.2-.3,1.9-.3,3.2,0,1.3-.7,1.7-1.7,2.6.8,0,1.7,0,2.6,0,0,0,0,0,.1,0,1.2-1.1.4-2.8.7-4Z"/>
        <path class="cls-15" d="M25.2,94.9c.6-.5-.1-1.6-.7-.6s-1.2,1.1-1.4,4.1c0,0,0,0,0,0,.4,0,.7,0,1.2,0,0-1.6.3-3.2.9-3.6Z"/>
        <path class="cls-15" d="M38.4,95.5c.2-.9.6-2.1-.4-1.4-.9.7-1.3,3-1,4.5.4,0,.8,0,1.2,0h0c-.3-.8,0-2.3.1-3.1Z"/>
        <path class="cls-15" d="M54.8,90.9c3-.1,13.7-.3,16-.3s2.6-2,1.4-1.9-13,.5-14.6.5c-.9-.4-3.2-1.2-4.2-8.2-1-7,5.5-13.7,8.8-15.6,3.3-1.9.8-2.7-.6-1.8-9,4.8-10.5,15.4-10.6,17.7-.3.6-4.6,13.1-5.1,14.1-.5,1.1-1.3,1.8-2.9,3.3h0c2.4,0,4.8,0,7.1,0,0,0,0,0,0,0-3.1-3.5-.3-7.8,4.8-7.8Z"/>
        <g>
          <path class="cls-15" d="M43.4,21.9c-.5.9-1.9.5-1.3-.5s1.5-2.1,3.1-2.1,3,1.1,3.8,1.8c1.1.9-.3,1.5-1,.8-.5-.3-1.5-1.3-2.8-1.2s-1.7.9-1.9,1.2Z"/>
          <path class="cls-15" d="M31.2,22.5c.6,1,2.1.3,1.5-.8s-1.6-2.2-3.3-2.4-2.6.2-3.6.9c-1.2.8-.2,1.9.6,1.2.5-.3,1.2-.8,2.6-.6s1.8,1.1,2.1,1.6Z"/>
          <path class="cls-15" d="M33.8,24.9c.3-2,1.4-1.5,3.2-1.5s2.9,0,2.8,1.5-2.3,2-2.5,2c.3,2.5.8,4,3.5,4s3.1-1.5,3.6-2.1,2-.3.9,1.2-2.7,2.4-4.3,2.4-4-1.2-4.2-2.1c-1.2,1.7-2.6,1.8-3.8,1.9s-2.9-.6-3.3-2.2.6-1.6,1.1,0,1.1,1.2,2.1,1.1,3.2-.4,3.2-3.9c-1.7-.7-2.4-1.7-2.3-2.3Z"/>
        </g>
      </g>
    </g>
    <g id="Calque_4" class="cls-18">
      <g>
        <path class="cls-7" d="M84.1,84.7c1-5.7,3.1-14.2-3.3-25.4-6.3-11.2-16.5-17.5-18.9-19.1-.5-2.2-3.4-3.6-6.5-5.6,4.1.1,6.6.1,7.1-.4-.9-.9-4.8-1.5-5.6-1.7.5-1.6,1-2.2,4.9-.9,2.8-2.7-3.9-4.3-5.3-10.8-1.2-3.7,3.1-12.3-1.2-18-1.3-1.7-8.5,4.7-11.1,6.5-3.2-.8-6.8-1.2-10.1-.3C30.1,4.8,27.9-.4,22.2,1.4c-3,1.1-1.4,8.3-1.7,11.9-1.7,3.9-5.1,10.4-5.5,13.4-.2,1.3.2,2.5.2,3.4-3.7.9-5.9,2.4.4,1.2,1.4-.3,1.7.9.1,2.1-1.6,1.2-6.7,4.7.8,1.7,1.1-.5,1.5-.9,1.9.8s2.8,3.9,4.7,4.5c2,.7-.9,3.6-.8,14,.1,10.5,5.7,14.9,5.9,34.5-6.1,2.1-9.6,7.2-4.3,10,.3,0,.8,0,1.4,0,0-.1-.2-.2-.2-.4-.4-1.7,0-4.7,1.1-5.6s.7.6.5,1.6-.6,2.8-.2,3.8c.1.2,0,.4,0,.6,1.3,0,3,0,4.7,0-.2-4,.6-5.9,1.5-7.3s1.9-1.7,2.3-2.6c.4-.9,1.4-9.5.9-10.5-.6-1-7.5-5.7-9.8-11.5-.7-2.2.8-3.3,1.9,0,1.1,3.3,7.9,9,9.4,9.3.2-2.7,1.3-9.3,1.7-10.6.4-1.2,1.5-1,1.3.7-.2,1.7-2.4,21.1-3.4,23.7-3,1.9-4,4-4.2,8.7,0,0,0,0,0,0,1.6,0,3.3,0,4.8,0,0-.1-.2-.2-.2-.4-.4-1.7,0-4.7,1.1-5.6s.7.6.5,1.6-.6,2.8-.2,3.8c.1.2,0,.4,0,.6,1.5,0,2.8,0,3.4,0,3,0,7.3-8.7,8.7-15.4,1-2.4,1.4-3.3,1.6-5,.7-12,8-19.7,12.6-20.2,2.6-.5,1.9,1.5,0,2.1s-7.3,3.8-9.5,11.8c-2.1,8.1,2.4,13.9,3.2,14.2,9.9-1.5,16.9,0,18.6.7,1.7.7.9,3-2,1.8-3-1.1-17.8-.8-23.8.9-2.1,2.1-4.5,5.6-2.3,8.7,5.8,0,25.9,0,31.9,0,6,0,11-8.8,2.8-13.8Z"/>
        <path class="cls-9" d="M26.5,98.4c-.4-.9-.1-2.7.2-3.8s.7-2.5-.5-1.6-1.5,3.8-1.1,5.6c0,.2.1.3.2.4.4,0,.8,0,1.2,0,.1-.1.1-.3,0-.6Z"/>
        <path class="cls-9" d="M38.8,98.4c-.4-.9-.1-2.7.2-3.8s.7-2.5-.5-1.6-1.5,3.8-1.1,5.6c0,.2.1.3.2.4.4,0,.8,0,1.2,0,.1-.1.1-.3,0-.6Z"/>
        <path class="cls-9" d="M37,90.2c1-2.6,3.3-22,3.4-23.7.2-1.7-.9-1.9-1.3-.7-.4,1.2-1.5,7.9-1.7,10.6-1.6-.3-8.3-6-9.4-9.3-1.1-3.3-2.5-2.2-1.9,0,2.2,5.8,9.2,10.5,9.8,11.5.6,1-.5,9.6-.9,10.5-.4.9-1.4,1.2-2.3,2.6s-1.7,3.3-1.5,7.3c.6,0,1.1,0,1.7,0h0c.2-4.8,1.2-6.8,4.2-8.7Z"/>
        <path class="cls-9" d="M75.5,89c3,1.1,3.8-1.1,2-1.8-1.7-.7-8.7-2.2-18.6-.7-.9-.3-5.4-6.1-3.2-14.2,2.1-8.1,7.5-11.3,9.5-11.8s2.6-2.5,0-2.1c-4.7.5-11.9,8.2-12.6,20.2-.2,1.7-.6,2.6-1.6,5,2.6,4.7,1.9,4,2.6,4.7-.5.3-1.2.9-1.9,1.6,6.1-1.7,20.9-2,23.8-.9Z"/>
        <path class="cls-9" d="M27.4,23.9c.4,1.1,1.7.2,1.3-.9s-1.2-2.5-2.5-2.5-2.2.4-3,1.2c-1,1-.2,2.1.4,1.4.5-.3,1-1,2.1-.8s1.4,1.1,1.6,1.7Z"/>
        <path class="cls-9" d="M43.9,23.9c.9,1,2,0,1.1-1s-2-2.4-3.6-2-2.5,1-3.3,2c-.9,1.3.4,2.1.9,1.2.5-.5.9-1.2,2.3-1.4s2.1.7,2.5,1.2Z"/>
        <path class="cls-9" d="M29.4,27.1c.2-1.2,1.3-.9,2.4-.8s2.9,0,2.9.8c0,1.5-1.6,1.7-2.3,2.6,0,2.6,1,5.3,3.4,5.2s3.9-2.3,4.4-3,1.3,0,.6,1.1-2.4,3.1-4.8,3-3.9-1.6-4.1-2.6c-.5,1.1-2.1,2.1-3.6,2s-3.3-1.1-3.6-3.4c0-.9.6-.9.7,0s1.5,2.3,2.9,2.4,3-1.1,3.1-4.7c-1-.6-2.1-1.2-1.9-2.8Z"/>
      </g>
    </g>
    <g id="Calque_5" class="cls-18">
      <g>
        <g>
          <path class="cls-15" d="M93.4,87.1c-9.9.1-11-.3-11.1-2.4,2-32-16.7-45.8-27.8-48-8.6-1.7-11.5-2.6-14-6.2-2.5-3.6-1.2-4.9-3.6-11.3-1.7-4.8-2.2-3.5-4.4-11-1.2-3.5-2.7-7-5.1-7.4s-2.8,3.2-2.9,5.5c-.7-.3-3.1-5.4-5.5-5.1s-1.8,4.6-1.4,9.3c-7,.5-10.1,6.5-10.7,7.7-.6,1.2-1.3,1.4-3.7,3.6-.3.2-.4.6-.4.9-.2,7.8,7.1,9.1,10.1,9.7,9.1,2.9-3.5,15.5,7.9,34.6.3,11.2,1.3,14.6,1.2,23.5-7.7-.3-6.3,9.1-3.1,9.1s8.9,0,15.9,0,3.2-11.1,5.2-15.3c1,1.2,2.1,3.7,5.3,5.8-5.2,1.3-5.9,9.5-2,9.5s6.1,0,12.4,0c0,0,0,0,0,0-1.7-3,1.4-5.2,4.1-6.7,1.3-.5,1.5-1.6-.3-1.6s-10.9-3.2-10.6-9.4c.3-6.2,2.8-11.6,9.5-11.9,6.7-.3,7.3,6.3,7,8.1-.4,2.4-2.6-.6-6.1.6-3.5,1.2-2.2,6.2,4.4,5.5,6.6-.7,9.2-5.2,12.2-2.3,2.8,2.7-3.4,9.9-7.7,9.8,2.1,1.4,2.3,5.7-1.4,8,10.4,0,21.1-.2,24.6-.2,8.6.3,6.1-11.8,2-11.8Z"/>
          <path class="cls-16" d="M68.2,91.2c4.4.1,10.5-7.1,7.7-9.8-3-2.9-5.6,1.6-12.2,2.3-6.6.7-8-4.3-4.4-5.5,3.5-1.2,5.7,1.8,6.1-.6.3-1.8-.3-8.4-7-8.1-6.7.3-9.2,5.7-9.5,11.9-.3,6.2,8.7,9.4,10.6,9.4s1.6,1.1.3,1.6c-2.8,1.5-5.8,3.8-4.1,6.7,0,0,0,0,0,0,3.4,0,7.2,0,11.1,0,3.8-2.3,3.5-6.6,1.4-8Z"/>
        </g>
        <path class="cls-9" d="M93.4,87.1c-4.4,0-7.1,0-8.7-.3-.5,3.4-1.6,8.7-4.2,12.2h0c5,0,9,0,10.9,0,8.6.3,6.1-11.8,2-11.8Z"/>
        <path class="cls-9" d="M83.1,86.6c0,0,0-.1,0-.2-.7-.4-.8-.9-.9-1.7,2-32-16.7-45.8-27.8-48-8.6-1.7-11.5-2.6-14-6.2-2.5-3.6-1.2-4.9-3.6-11.3-1.7-4.8-2.2-3.5-4.4-11-1.2-3.5-2.7-7-5.1-7.4s-2.8,3.2-2.9,5.5c-.7-.3-3.1-5.4-5.5-5.1-2.4.3-1.8,4.6-1.4,9.3-7,.5-10.1,6.5-10.7,7.7-.6,1.2-1.3,1.4-3.7,3.6-.3.2-.4.6-.4.9-.2,7.8,7.1,9.1,10.1,9.7,9.1,2.9-3.5,15.5,7.9,34.6,4.4,3.6,5.3,4.3,7,5.2.3-3.6,0-11.5,0-12.8,0-1.3,1.6-.4,1.7,3.2,0,3.6,1.3,12.1,1.7,27.5-4.6,1.2-7.1,2.6-6.8,9.5h10.4c2.7,0,3.2-11.1,5.2-15.3,1,1.2,2.1,3.7,5.3,5.8-5.2,1.3-5.9,9.5-2,9.5s6.1,0,12.4,0c-1.7-3,1.4-5.2,4.1-6.8,1.3-.5,1.5-1.6-.3-1.6s-10.9-3.2-10.6-9.4c.3-6.2,2.8-11.6,9.5-11.9,6.7-.3,7.3,6.3,7,8.1-.4,2.4-2.6-.6-6.1.6-3.5,1.2-2.2,6.2,4.4,5.5,6.6-.7,9.2-5.2,12.2-2.3,2.8,2.7-3.4,9.9-7.7,9.8,2.1,1.4,2.3,5.7-1.4,8,3.5,0,7.1,0,10.4,0h0c2.8-4,5.2-10.6,5.9-12.5Z"/>
        <path class="cls-16" d="M27.5,15.9c0,2.2-1,3.9-2.3,3.9s-2.8-1.8-2.8-3.9,1.6-3.9,2.8-3.9,2.3,1.8,2.3,3.9Z"/>
        <path class="cls-16" d="M16.8,21.9c.8-1.2.7-2.4-.1-3s-1.7.1-2.5,1.3-1.1,2.7-.2,3.2,2-.3,2.9-1.5Z"/>
        <path class="cls-16" d="M24.5,29.7c0-.9-.9-1.1-2-1.1s-2,.2-2,1.1.9,1.6,2,1.6,2-.7,2-1.6Z"/>
        <path class="cls-16" d="M30.1,27.4c0,1.7,1,3,2.2,3s2.2-1.4,2.2-3-1-2.8-2.2-2.8-2.2,1.1-2.2,2.8Z"/>
        <ellipse class="cls-16" cx="34.8" cy="40" rx="2.5" ry="3.1" transform="translate(-15.9 24.6) rotate(-32.1)"/>
        <ellipse class="cls-16" cx="24.4" cy="45.9" rx="2.4" ry="3.3" transform="translate(-23.1 24.7) rotate(-38)"/>
        <path class="cls-16" d="M34.8,55c1.1,1.8,1.4,3.3,0,4.1s-3.5.5-4.6-1.3-.8-3.9.6-4.7,2.9.1,4,1.9Z"/>
        <path class="cls-16" d="M25,58.3c.8,1.2,1.3,2.5.5,3.1s-2.1,0-3-1.3-.9-2.7,0-3.2,1.7.2,2.6,1.5Z"/>
        <path class="cls-16" d="M45,49.9c1,1.8.7,3.6-.2,4s-2.8.2-3.9-1.6c-1.1-1.7-.9-3.7.2-4.3s2.8.3,3.9,2Z"/>
        <path class="cls-16" d="M53.6,43.5c1.3,2.4,1.5,4.9.6,5.3-1.5.7-3.5.2-4.8-1.7-1.3-1.9-1.2-4.2.1-5.1s2.9-.5,4,1.5Z"/>
        <path class="cls-16" d="M33.2,85.2c-.7,1.2-.6,2.5,0,3s1.5-.1,2.2-1.3.6-2.2-.1-2.6-1.4-.2-2.1,1Z"/>
        <path class="cls-16" d="M78.7,68.6c.7,2.7.1,5.6-2,6.1s-4.3-1.3-5-3.9-.7-5.7,2.2-6.5,4.2,1.6,4.8,4.3Z"/>
        <path class="cls-16" d="M33.4,76.2c1.2,1.3,3.3,1.4,5.4-1.3s1.6-5.4.3-6-5-1.4-6.2,2c-1.3,3.4-.1,4.5.6,5.3Z"/>
        <path class="cls-16" d="M56.1,62.8c2.8-.3,5.1,2.4,9.2,1.4s5.6-3.6,5.6-7.5-3-8.3-6.1-8.4-3.7,5.2-6.6,6.3-8.2,2.1-7.9,7c.3,4.9,3.4,1.4,5.7,1.2Z"/>
        <path class="cls-16" d="M86.3,90.9c-.7-1.6,2.6-1.6,3.7-.7s2.8,3.6,1.5,4.4-3.2.5-5.2-3.6Z"/>
        <g>
          <path class="cls-15" d="M51.2,86.6s0,0,0,0c-3.7-.2-6.6,1-6.2,2.9,9.1.6,10.9,2.9,13.4,2.5,1-.2,1.6-.7,1.9-1.2-.2,0-.4,0-.8,0-1.2,0-5.6-1.4-8.3-4.2Z"/>
          <path class="cls-15" d="M63.7,83.7c2.8-.3,4.9-1.3,6.6-2.1-1.7-1.8-3.8-3.2-8.7-2.1-1.9.4-3.2.7-4.2.8-.1,1.8,1.9,3.8,6.3,3.4Z"/>
        </g>
        <path class="cls-10" d="M80.5,99c-1,0-2.1,0-3.2,0"/>
        <path class="cls-15" d="M84.7,86.8c-.7-.1-1.1-.3-1.5-.5,0,0,0,.1,0,.2-.7,1.9-3.1,8.5-5.9,12.5h0c1.1,0,2.2,0,3.2,0h0c2.6-3.5,3.8-8.8,4.2-12.2Z"/>
      </g>
    </g>
    <g id="Calque_6" class="cls-18">
      <g>
        <path class="cls-13" d="M4.3,22.7c0-.3.2-.7.4-.9,2.3-2.1,3.1-2.4,3.6-3.5s2.2-7.2,9.2-7.7c-.4-4.7-.8-8.8,1.6-9.1s6.1,4.7,6.8,5c.1-2.3.5-5.9,2.8-5.4s3.8,3.9,5,7.4c2.2,7.4,2.6,6.1,4.4,10.9s1,7.6,3.5,11.2,3.5,5,12,6.9c8.5,1.9,28.5,15.9,26.5,47.7,1.6,1,3,1.7,3,1.7h9c4.1,0,5.3,11.7,0,11.7s-45.3.3-48.8.3-2.5-7.4,2.7-8.7c-2.1-1-5.4-4.6-5.3-5.6-.8,5.9-3.6,14.3-5.6,14.3h-15.7c-3.2,0-4.9-9.1,2.8-8.8.1-8.9-.8-13.8-1.2-25-11.3-18.9,2.4-30-6.7-32.8-3-.6-10.3-1.9-10.1-9.6Z"/>
        <path class="cls-16" d="M79.9,74c-7,6.9-16.5,10-16.9,5.8,0-1.3,15.3-5.3,15.8-12.6-.7-2.7-1.5-5.2-2.5-7.5-8,10.6-9,9.5-15.3,12.1-6.3,2.5-9.1,3.5-9,8.7,0,5.2,2.9,9.9,6.8,11.5-.9-1.7,1.5-.6,2.3,1.6-4.7.9-5.4-2.3-12.5-2.1-2.7,0-4.7.6-6.1,1.3-1.8,2.6-1.6,6.2.8,6.2s17.7-.1,30.9-.2c2.2-3,4.9-7.6,6-13.5.3-4,.2-7.8-.2-11.2Z"/>
        <path class="cls-16" d="M52.8,89.6c-5.4-6.9-5.2-16.2,3.7-20.6,8.9-4.4,10-1,17.4-14.2-1.4-2.4-2.9-4.5-4.5-6.4-4.5,9.1-8.5,13-12.5,15-4.1,1.9-5.1-2.3-1.9-4,3.1-1.7,8.5-7.9,10.8-14.8-2.4-2.2-4.9-3.9-7.2-5.1-1.5,8.8-6.5,15.4-10.3,17.5-3.8,2.1-5.3,0-2.5-2.9,2.9-2.8,8.9-9,9-16.2-.4-.1-.9-.3-1.3-.4-1.4-.3-2.6-.6-3.7-.9,0,0,0,0,0,0-6.9,13-16.2,14.5-21.3,15.1-4.3.5-5.5-1.8-1.9-2.8,3.6-1,15.4-3.4,19.3-13.8,0,0,0,0,0,0-1.2-.6-2-1.3-2.7-2.2-7,6.8-12.5,7.5-15.9,7.6s-4.1-3.4,1.3-3.8,10.3-4.5,12.5-6.7h0c-2-3.2-.9-4.6-3.2-10.7-1.7-4.7-2.2-3.4-4.4-10.9-1.2-3.4-2.7-6.9-5-7.4s-2.7,3.1-2.8,5.4c-.7-.3-4.4-5.3-6.8-5-2.4.3-1.9,4.4-1.6,9.1-6.9.5-8.6,6.5-9.2,7.7-.6,1.2-1.3,1.4-3.6,3.5-.3.2-.4.6-.4.9-.2,7.8,7.1,9.1,10.1,9.6,9,2.8-4.7,13.9,6.7,32.8,1.6.9,2.9,2.4,9,6.2.2-5.8-2.5-5.6.2-8.1,1,2.8,4.9,3.5,11.5,5.2,0-2.6,1.3-8.9,2.3-4.9,1,4-.4,8.7-.6,13.1-1,1.4-1.8,5.2-1.5,10.1,1.1,1.4,2.8,2.9,4.1,3.5,2.1-.7,4.8-1.7,6.8-.7Z"/>
        <path class="cls-16" d="M29.5,82.7c0-1.7.3-5.7.6-7.9-3.2-2.1-6.5-5.4-9-7.7.4,9.8,1.2,14.7,1.1,23,1,0,0,0,3.2-.5-.8-5.8,2.4-9.1,4.1-7Z"/>
        <path class="cls-11" d="M45,90.6c.4-.1.7-.3,1-.4-.4,0-.7.2-1,.4Z"/>
        <path class="cls-16" d="M40.2,83.2c-2.4.1-4.1-.5-8.3-1.6,0,9.7-.4,7.2-1.6,8.6-2.9.3-4.5,3.6-4.4,8.7h9.2c2,0,4.7-8.5,5.6-14.3,0,0-.5.2-.5-1.4Z"/>
        <path class="cls-16" d="M89,86.9h-4.9c-.2,2.5-.7,7.4-2.3,11.8,2.4,0,4.5,0,6.3,0-.2-4.5.8-8,.9-11.7Z"/>
        <path class="cls-16" d="M32.1,70.2c-.2,2.1.2,3.9,0,7.4,1.7.8,3.6.5,8.3,2.5.3-2.2.4-3.1.5-6.6-1.9.1-5.3-1.7-8.8-3.2Z"/>
        <path class="cls-8" d="M19.4,18.6c-2.4-1.1-5.6.5-4.8,2.2,1.3,1.6,4.9.5,4.8-2.2Z"/>
      </g>
    </g>
    <g id="Calque_7" class="cls-18">
      <g>
        <path class="cls-9" d="M5.9,22.2c2.6-2.5,3.8-2.6,4.4-3.8s2.9-7.7,9.8-8.2c-.4-4.7-.4-8.7,2-9,2.4-.3,4.9,5.5,5.6,5.8.1-2.3.4-6.2,2.8-5.7s3.7,4.6,4.9,8c1.1,1.4,2,3.8,3.7,8.6,2.4,6.4.5,8.8,3,12.4s3.6,5,12,6.9c8.5,1.9,30.1,15.2,28.1,47.2,1.6,1,4,1.8,8.7,4.8,4.8,2.9,4,9.5-1.4,9.5s-66.6.3-69.8.3-4.9-9.2,2.8-8.8c.1-8.9.1-9.8-.2-21-14.6-20.4-1.9-32.7-8.3-37.1-3.1-.6-8.2-3.3-8.1-9.7Z"/>
        <g>
          <path class="cls-15" d="M22.6,90c-7.7-.3-6.1,8.8-2.8,8.8s2.9,0,6.3,0h0c0-4.7,1.4-8.3,4.9-8.3,0-1.4,1-20.3,1-24.1s-1.2-3.4-1.8-1.9c.3,1.2-.3,17-1.1,23.1-2.8,0-6.6,2.4-6.6,2.4Z"/>
          <path class="cls-15" d="M37.5,98.7c.6,0,1.3,0,2,0h0c6.9-23.2,7.6-31.4,8.1-35.5.4-4.1-1.4-3.1-1.6-1-1.4,18.3-8.4,36.6-8.4,36.6h0Z"/>
          <path class="cls-15" d="M47.8,98.1c-.8-10.9,12.1-5.9,12.1-5.9,0,0,1,0,2-.9-1.1,0-1.3-.6-3.1-1.8-7.2-2.4-6.8-11.8-6.8-11.8.7-7,8-11.7,8.7-12.1.8-.3,1.2-2.1-.5-1.4-12.9,6.1-12.6,16.6-7.3,25.3-4.7-1.2-9,4.2-6.5,9.2h0c.5,0,.9,0,1.4,0,0-.2,0-.4,0-.6Z"/>
        </g>
      </g>
    </g>
    <g id="Calque_8">
      <g>
        <path class="cls-8" d="M91.2,87.8c9.2-8.4,7.4-17.1,4.4-15.6,1.4-10.3-7.4-25.3-8.8-28.7-1.3-3.4-.7-8.7,1.2-8.8,1.4,0,1.3,1.8,4.3,1.8,5.4-.5.5-15-8.3-17.8-8.1-2.6-23.2-.9-24,17.8-.2,10.8,9.5,16.8,14.4,28.2,3.1,7.1,3.1,16.4-1.6,16.7,1.8-16.1-15.2-38-21.3-41-7.6-3.7-7.8-7.1-8.1-8,.6-.4,1.5-.9,1.9-1.2-.5-1-3.3-3.6-4.4-4.8.7,0,1.4-.4,2-.8.5-8.4-6.4-10.7-6.5-12.1-1.3-3.6-5-12.4-7.6-12.8-2-.3-5.2,4.3-6.2,6.9-.7-.3-6.7-5-9.2-4.8-1.1,0-.9,3.9-.5,8.9-5.4.4-6.9,7.8-7.1,9-.3,1.4-1.2.7-3.9,3.4-.9,7.2,2.5,8.6,6.9,12.2,0,0-7.3,9-3.7,18.4.8-.3,1.6-1.6,1.9-1.9.5-.6-1,10.6,4.2,14,.8-.7,1.1-3.7,1.4-2.1,0,.3.1.7.2,1.1h0c3.8,5.9,6.6,11.4,8.8,11.9.5-7.2-.3-12.3.5-13.6.9-1.3,1.9-.4,1.8,1.9-.2,2.3.3,20.8-2.1,25.2-5.5,1.1-5.3,6.1-4.9,7.5,3.4,0,8,.1,13.2.2.2-5.3-.4-5.1.6-6.6,1-1.6,5.6-17.5,5.2-22.2-.5-4.7,1.8-6,1.8,1.7s0,11.4,1.1,7.8c1.1-3.6,1.7-11.5,10.6-14.6,1.7-.6,2.8,1.1.3,2.2-2.5,1.1-7.4,4.8-7.4,11.2,0,6.4,5.3,10.5,12.6,13.1-5.6.5-7.2.9-8.7-.1s-11.6-2-11.1,7.6c15.4.2,33.8.3,41.7-.2,14-.9,19.1-9.7,14.5-11Z"/>
        <path class="cls-15" d="M10.5,24.1c.9.7,4.4.6,4.9-2.4-1.9-1.2-4.9-.4-4.9,2.4Z"/>
        <path class="cls-15" d="M46.1,91.4c1.5,1,3.1.6,8.7.1-7.3-2.6-12.6-6.7-12.6-13.1,0-6.4,4.9-10.2,7.4-11.2,2.5-1.1,1.3-2.8-.3-2.2-8.8,3.2-9.5,11-10.6,14.6-1.1,3.6-1.1-.1-1.1-7.8s-2.3-6.4-1.8-1.7c.5,4.7-4.2,20.6-5.2,22.2-1,1.6-.3,1.3-.6,6.6,1.6,0,3.2,0,4.9,0-.5-9.7,9.5-8.7,11.1-7.6Z"/>
        <path class="cls-15" d="M21.9,91.3c2.4-4.3,1.9-22.9,2.1-25.2.2-2.3-.9-3.2-1.8-1.9-.9,1.3,0,6.4-.5,13.6-2.2-.5-5-6-8.8-11.9h0c.6,3.9,2.1,14,2,24.6-8.2-.4-8.5,8-3.8,8.1.6,0,2.7,0,5.8,0h0c-.4-1.4-.6-6.4,4.9-7.5Z"/>
      </g>
    </g>
    <g id="Calque_9" class="cls-18">
      <g>
        <path class="cls-16" d="M84.8,65.8c-11.4,4.6-23.5-5.6-10.1-17.7-3.1-2.7-10.4-8.5-12.6-9.5-1,2.9-.9,3.4-1,5.5,0,2.1,1.3,13-7.4,12.4-4.7-.4-6.7-3.7-7.5-7-.3.5-.7.9-1,1.4,0,0,0,0,0,0,.5,5.3,6.3,8.9,5.1,15.5-1.2,6.6-4.1,14.6-12.3,11.4-.7,9.2-.7,11.4-.8,13-4.9-.2-5.6,4.3-5.7,8,3.3,0,8.1,0,9.3,0s2.9-.4,3.2-3.4c.3-3.1,1-5.8,1.4-7,2.2-17.7,14-25.2,16.8-22.9,1.7,1.4-2.4,1.8-1.7,12.9,0,1.1.7,1.9,1.6,2.7.7-10.6,14.8-15.6,16.4,1.7.7-.3,1.4-.5,2.3-.4,3.8.3,2,2.1,5.4,1.2.3-3.4-.4-11.2-1.4-17.8Z"/>
        <path class="cls-9" d="M37.2,90.7c.2-1.6.2-3.9.8-13,8.2,3.2,11.1-4.9,12.3-11.4,1.2-6.6-4.6-10.2-5.1-15.5-.1.1-.2.3-.3.4,0,0,0,0,0,.1-.1.1-.2.3-.3.4,0,0,0,0,0,0-.1.1-.2.3-.3.4,0,0,0,0,0,0-.3.4-.6.7-.9,1.1,0,0,0,0,0,0-.1.1-.2.3-.3.4,0,0,0,0,0,0-.2.3-.5.5-.7.8,0,.1-.2.2-.3.3,0,0,0,0,0,0,0,.1-.2.2-.3.3,0,0,0,0,0,0,0,.1-.2.2-.3.3,0,0,0,0,0,0,0,.1-.2.2-.2.3,0,0,0,0,0,0,0,.1-.2.2-.2.3,0,0,0,0,0,0,0,.1-.2.2-.2.3,0,0,0,0,0,0,0,.1-.1.2-.2.3,0,0,0,0,0,0,0,.1-.1.2-.2.3,0,0,0,0,0,0,0,.1-.1.2-.2.3,0,0,0,0,0,0,0,.1-.1.2-.2.4,0,0,0,0,0,0,0,.1-.1.3-.2.4,0,0,0,0,0,0,0,.1-.1.3-.2.4,0,0,0,0,0,0,0,.1,0,.3-.1.4,0,0,0,0,0,0,0,.2,0,.3-.1.5,0,0,0,0,0,0,0,.2,0,.3-.1.5,0,0,0,0,0,0,0,.2,0,.4-.1.5,0,0,0,0,0,0,0,.2,0,.4,0,.6,0,0,0,0,0,.1,0,.2,0,.4,0,.6,0,0,0,0,0,0,0,.2,0,.4,0,.7,0,0,0,0,0,0,0,.2,0,.5,0,.7,0,0,0,0,0,0,0,.2,0,.5,0,.7,0,0,0,0,0,.1,0,.3,0,.5,0,.8,0,0,0,0,0,.1,0,.3,0,.6,0,.9,0,0,0,0,0,0,0,.3,0,.6,0,.9,0,0,0,0,0,0,0,.3,0,.6,0,1,0,0,0,.1,0,.2,0,.3,0,.7,0,1,0,0,0,.1,0,.2,0,.4,0,.7,0,1.1,0,0,0,.1,0,.2,0,.4,0,.8,0,1.2-1.9-.4-5.4-2-9.1-6.2.3,11.1,1.5,15.3,1.4,24.1-7.8-1.1-7.6,8.2-4.4,8.2s3.2,0,5.5,0c0-3.8.8-8.2,5.7-8Z"/>
        <path class="cls-16" d="M22.3,21.9c0-1.6,3.5-3.6,4.1-1.6,0,.3,0,.6,0,.8,0,0,.2,0,.3,0,4.5.2,9.5-.7,13.3,5.9,1.3-2.6,3.4-3,6-2.6h0c-.3-1.5-.7-3.3-1.4-5.7-.5-1.8-.9-2.9-1.2-3.7-1.9,2.3-4.1,3.6-6.8,1.2-2.7-2.5-4.6-4.4-5.5-4.3-1.7.2,1,5.5-3.5,6.3-3.7.6-6.3,0-8.4-1.4-.2.7-.3,1.3-.5,1.6-.6,1.1-2.3,1.5-4.6,3.6-.3.2-.4.6-.4.9,0,.7,0,1.3,0,1.9,3.7-3.6,5.1-2.6,8.6-3,0,0,0,0,0,0Z"/>
        <path class="cls-16" d="M31.2,53.1c1.5-3.4-3.1-9-7.2-13.2-.6,4.9-2.1,11.5.9,19.4,1.3-2.2,4-1,6.2-6.1Z"/>
        <path class="cls-16" d="M63.8,92.3s0,0,0,0c-.2,0-.4,0-.6,0-3.4,0-6.9-3.2-11.9-2.2-5.1,1.3-3.9,8.4-.5,8.4s10.8.2,18.5.2c-2.6-3.8-3-4.4-5.5-6.4Z"/>
        <path class="cls-9" d="M27.5,18.3c4.5-.7,1.7-6.1,3.5-6.3.9,0,2.8,1.8,5.5,4.3,2.7,2.5,4.9,1.1,6.8-1.2-.5-1.3-1-1.9-2.2-4.3-1.2-3.4-4.8-9.7-7.2-9.7-2.6,0-1.7,6.6-2.4,6.6-.7-.3-5.3-5.6-6.6-5.3-1,.2-1,4.3-.6,9-3.7,1.6-4.6,3.7-5.1,5.3,2.1,1.4,4.7,2,8.4,1.4Z"/>
        <g>
          <path class="cls-14" d="M79.1,66.8c-4.6,0-8.4-2.2-9.7-5.6-.9-2.2-1.3-6.9,5.3-12.9,5.4,4.4,8.4,9.6,10,17.4-1.8.7-3.7,1.1-5.6,1.1h0Z"/>
          <path class="cls-1" d="M74.7,48.4c5.3,4.3,8.3,9.5,9.8,17.2-1.8.7-3.6,1-5.4,1-4.5,0-8.3-2.2-9.6-5.5-.9-2.2-1.3-6.8,5.1-12.7M74.7,48.1c-11.1,10.1-4.6,18.8,4.4,18.8s3.8-.4,5.7-1.1c-1.6-8.3-4.9-13.5-10.1-17.7h0Z"/>
        </g>
        <path class="cls-9" d="M63.2,92.3c.2,0,.4,0,.6,0,2.6-.5,3.4-4.1,3.4-6,0-3.2-2.2-2.9-5-5.2-.9-.7-1.5-1.6-1.6-2.7-.7-11.1,3.4-11.5,1.7-12.9-2.8-2.3-14.6,5.2-16.8,22.9.8.6,3.3,1.5,5.8,1.8,4.9-1.1,8.5,2.2,11.9,2.2Z"/>
        <path class="cls-9" d="M80.8,82.3c-.8,0-1.6.1-2.3.4-.6.3-1.1.7-1.5,1.1,0,0-.2.2-.3.3,0,0,0,0,0,0-.3.4-.6.8-.9,1.1,0,0,0,0,0,0,0,0-.1.2-.2.3,0,0,0,0,0,0-.2.3-.3.5-.4.8,0,0,0,0,0,.1,0,0,0,.1,0,.2,0,0,0,.1,0,.2,0,0,0,.1,0,.2,0,0,0,.2,0,.3,0,0,0,0,0,0,0,0,0,.1,0,.2,0,0,0,0,0,0,0,0,0,.1,0,.2,0,0,0,0,0,0,0,0,0,.2,0,.2.2,1.6,1.9,6.9,7.8,6.1,3.4-4.6,3.3-8.8,3.7-10.8-3.4.9-1.6-.9-5.4-1.2Z"/>
        <g>
          <path class="cls-14" d="M69.4,98.6h0c-2.5-3.7-3-4.4-5.3-6.3,2.6-.7,3.3-4.2,3.3-6.1,0-2.2-1.1-2.8-2.6-3.7-.7-.4-1.5-.9-2.4-1.6.4-5.7,4.6-9.5,8.4-9.5s7.1,4.2,7.7,11.1c-.6.3-1.2.7-1.7,1.3-.4.4-.7.8-.9,1.2,0,.1-.1.2-.2.3-.2.3-.3.6-.4.8v.3c-.1,0-.2.3-.2.3,0,.1,0,.2,0,.3v.3c0,0,0,.2,0,.3,0,.2,0,.3,0,.3.2,1.6,1.8,6.3,6.8,6.3s.6,0,.9,0c-.3.6-.7,1.2-1,1.8-1.5,2.3-4.5,2.4-9.7,2.4h-2.2Z"/>
          <path class="cls-1" d="M70.7,71.6c4.1,0,6.9,4.1,7.6,10.9-.6.3-1.2.7-1.7,1.3-.3.4-.6.8-.9,1.2,0,0-.1.2-.2.3-.2.3-.3.6-.4.8h0c0,.2,0,.3,0,.3v.2c0,0-.1.1-.1.1,0,.1,0,.2,0,.3h0c0,.2,0,.2,0,.3h0c0,.2,0,.2,0,.3h0c0,.2,0,.2,0,.3.2,1.7,1.8,6.4,6.9,6.4s.4,0,.7,0c-.3.6-.6,1.1-.9,1.6-1.5,2.2-4.5,2.3-9.6,2.3h-.3s-.3,0-.3,0c-.5,0-1,0-1.5,0h0c-2.4-3.5-2.9-4.3-5.1-6.1,2.5-.8,3.1-4.3,3.1-6.1,0-2.3-1.1-2.9-2.7-3.8-.7-.4-1.5-.9-2.4-1.6.4-5.6,4.6-9.3,8.3-9.3M70.7,71.4c-4,0-8.2,4.1-8.5,9.6,2.8,2.3,5,2.1,5,5.2,0,1.9-.8,5.5-3.4,6,0,0,0,0,0,0,2.5,2,2.9,2.7,5.5,6.4.6,0,1.1,0,1.6,0s.5,0,.7,0c5,0,8.2,0,9.8-2.4.4-.7.8-1.4,1.1-2-.4,0-.7,0-1.1,0-5,0-6.5-4.7-6.7-6.2,0,0,0-.1,0-.2,0,0,0,0,0,0,0,0,0-.1,0-.2,0,0,0,0,0,0,0,0,0-.1,0-.2,0,0,0,0,0,0,0,0,0-.2,0-.3,0,0,0-.1,0-.2,0,0,0-.1,0-.2,0,0,0-.1,0-.2,0,0,0,0,0-.1.1-.3.2-.5.4-.8,0,0,0,0,0,0,0,0,.1-.2.2-.3,0,0,0,0,0,0,.3-.4.6-.8.9-1.1,0,0,0,0,0,0,.5-.5,1.1-1,1.8-1.3-.7-8.1-4.2-11.3-7.8-11.3h0Z"/>
        </g>
        <path class="cls-9" d="M39.9,27.1c-.9,1.8-1.4,4.6-1.4,8.8s7.5,4.8,7.4,7c0,1-.2,3.8.5,6.6.8,3.3,2.8,6.6,7.5,7,8.7.7,7.3-10.3,7.4-12.4,0-2.1,0-2.5,1-5.5-6.1-2.8-10.4-3.8-13.3-6.8-2.1-2.2-2.3-3.7-3-7.3h0c-2.6-.4-4.7,0-6,2.6Z"/>
        <g>
          <path class="cls-14" d="M38,72.6c-1.2-.3-4.8-1.5-8.9-6.2-1.7-2.3-3.1-4.7-4-7.2.5-.8,1.2-1.1,1.9-1.5,1.3-.6,2.9-1.4,4.3-4.6,1.5-3.5-3-8.9-7.1-13.3.4-3.5.4-6.6-3.5-7.9-2.7-.5-6.4-1.2-6.9-7,2.8-2.8,4.3-2.8,6.4-2.8.6,0,1.2,0,2,0,.2.3.6.5,1.2.5,1.1,0,2.5-.5,2.9-1.3h.2c.6,0,1.2,0,1.8,0,4,0,8.1.1,11.3,5.8-.9,1.9-1.4,4.8-1.4,8.8s1.7,2.1,3.6,3.3c1.9,1.3,3.9,2.6,3.8,3.6-.2,2.4,0,4.6.4,6.5-.3.4-.5.7-.8,1.1h0s-.2.2-.2.2l-.4.5-.3.4-.7.8-.6.7-1.6,1.9-.3.4-.3.4c-.1.2-.2.3-.3.4,0,.1-.2.2-.2.3-.1.1-.2.3-.2.4-.1.2-.2.3-.2.4-.1.2-.2.3-.2.4,0,.2-.1.3-.2.4,0,.1-.1.3-.2.4,0,.2-.1.3-.2.5,0,.2-.1.4-.2.5,0,.2-.1.4-.2.5,0,.2,0,.4-.1.5,0,.2,0,.4-.1.6,0,.3,0,.5-.1.6,0,0,0,.5-.1.7,0,.3,0,.5,0,.8,0,.2,0,.5,0,.7,0,.3,0,.6,0,.8v1.1c0,.3,0,.6,0,.9,0,.4,0,.7,0,1,0,.4,0,1.2,0,1.2v1.2s0,1.3,0,1.3c0,.3,0,.7,0,1.1Z"/>
          <path class="cls-9" d="M26.5,21.4h.1c.6,0,1.2,0,1.8,0,3.9,0,8,.1,11.2,5.6-.9,1.9-1.4,4.8-1.4,8.8s1.7,2.2,3.6,3.4c1.8,1.2,3.8,2.5,3.7,3.5-.2,2.4,0,4.6.4,6.5-.2.3-.4.5-.6.8h0s-.4.5-.4.5c-.1.1-.2.3-.3.4h0c-.1.2-.2.4-.3.5-.1.1-.2.3-.3.4h0c0,0-.3.4-.3.4l-.2.3c-.1.1-.2.3-.4.4l-.4.4-.4.5-.3.3-.3.3h0s-.3.4-.3.4h0c0,.1-.2.2-.3.3h0c0,.2-.2.3-.2.4h0c0,.2-.2.3-.3.4,0,.1-.2.2-.3.4,0,.1-.1.2-.2.3h0c0,.2-.1.3-.2.4h0c0,.2-.1.3-.2.4h0s0,0,0,0c0,.1-.1.3-.2.4,0,.1-.1.3-.2.4h0c0,0,0,0,0,0,0,.1-.1.3-.2.4h0c0,.2-.1.4-.1.5h.2c0,0-.3,0-.3,0,0,.2,0,.3-.1.5,0,.2,0,.3-.1.6,0,.2,0,.4-.1.6h0c0,.2,0,.4-.1.6h0c0,.3,0,.5,0,.7h0c0,.3,0,.5,0,.8,0,.2,0,.5,0,.8h0c0,.3,0,.5,0,.8h0c0,.4,0,.6,0,.9h0c0,.4,0,.7,0,1h0c0,.4,0,.7,0,1h0c0,.4,0,.7,0,1.1h0c0,0,0,.2,0,.2,0,.3,0,.7,0,1v.2c0,.4,0,.7,0,1.1h0c0,0,0,.2,0,.2,0,.3,0,.6,0,.9-1.3-.4-4.7-1.7-8.7-6.1-1.7-2.3-3-4.7-4-7.1.5-.7,1.1-1,1.9-1.4,1.3-.6,2.9-1.4,4.3-4.7,1.5-3.5-3-9-7.1-13.4.4-3.6.4-6.6-3.6-8h0s0,0,0,0c-2.6-.5-6.2-1.2-6.7-6.8,2.7-2.7,4.2-2.7,6.3-2.7.6,0,1.2,0,1.9,0,.2.3.7.5,1.3.5,1.1,0,2.5-.5,3-1.3M26.4,21.2c-.4.8-1.8,1.3-2.9,1.3s-1.1-.2-1.2-.5c-3.5.3-5-.6-8.6,3,.5,5.9,4.3,6.6,7,7.1,3.6,1.2,3.8,4,3.4,7.8,4,4.3,8.6,9.8,7.2,13.2-2.2,5.2-4.9,3.9-6.2,6.1.9,2.3,2.2,4.8,4,7.3,3.7,4.2,7.2,5.8,9.1,6.2,0-.4,0-.8,0-1.2,0,0,0-.1,0-.2,0-.4,0-.7,0-1.1,0,0,0-.1,0-.2,0-.3,0-.7,0-1,0,0,0-.1,0-.2,0-.3,0-.7,0-1,0,0,0,0,0,0,0-.3,0-.6,0-.9,0,0,0,0,0,0,0-.3,0-.6,0-.9,0,0,0,0,0-.1,0-.3,0-.5,0-.8,0,0,0,0,0-.1,0-.3,0-.5,0-.7,0,0,0,0,0,0,0-.2,0-.5,0-.7,0,0,0,0,0,0,0-.2,0-.5,0-.7,0,0,0,0,0,0,0-.2,0-.4,0-.6,0,0,0,0,0-.1,0-.2,0-.4,0-.6,0,0,0,0,0,0,0-.2,0-.4.1-.5,0,0,0,0,0,0,0-.2,0-.3.1-.5,0,0,0,0,0,0,0-.2,0-.3.1-.5,0,0,0,0,0,0,0-.1,0-.3.1-.4,0,0,0,0,0,0,0-.1.1-.3.2-.4,0,0,0,0,0,0,0-.1.1-.3.2-.4,0,0,0,0,0,0,0-.1.1-.3.2-.4,0,0,0,0,0,0,0-.1.1-.2.2-.3,0,0,0,0,0,0,0-.1.1-.2.2-.3,0,0,0,0,0,0,0-.1.1-.2.2-.3,0,0,0,0,0,0,0-.1.1-.2.2-.3,0,0,0,0,0,0,0-.1.2-.2.2-.3,0,0,0,0,0,0,0-.1.2-.2.2-.3,0,0,0,0,0,0,0-.1.2-.2.3-.3,0,0,0,0,0,0,0-.1.2-.2.3-.3,0,0,0,0,0,0,0,0,.2-.2.3-.3.2-.3.5-.5.7-.8,0,0,0,0,0,0,.1-.1.2-.3.3-.4,0,0,0,0,0,0,.1-.1.2-.3.4-.4,0,0,.2-.2.2-.3,0-.1.2-.2.3-.4,0,0,0,0,0,0,.1-.1.2-.3.3-.4,0,0,0,0,0,0,0-.1.2-.3.3-.4,0,0,0,0,0-.1.1-.1.2-.3.3-.4,0,0,0,0,0,0,.4-.5.7-1,1-1.4-.7-2.8-.5-5.6-.5-6.6.1-2.2-7.4-5-7.4-7,0-4.2.5-7,1.4-8.8-3.7-6.6-8.8-5.7-13.3-5.9,0,0-.2,0-.3,0h0Z"/>
        </g>
        <path class="cls-9" d="M22.3,22s0,0,0,0c0-1.6,3.5-3.6,4.1-1.6,0,.3,0,.6,0,.8-.7,1.3-3.8,1.8-4,.8Z"/>
      </g>
    </g>
    <g id="Calque_10" class="cls-18">
      <g>
        <path class="cls-17" d="M29.3,73.3c1.1.7,1.9,1.2,2.3,1.4,0-9.4-2.3-10.4-2.3-1.4Z"/>
        <g>
          <path class="cls-9" d="M68.9,94.1c-6,.4-14.1-3.5-18.2-3.7-4.1-.2-5.5.9-5.5.9-4.4,1.9-2.7,7.6-.8,7.7,3.5,0,37.2.2,44.3.2s3.5-9.5-.6-9.5-8.4-2.4-10-3.4c-.8,3.5-3.2,7.4-9.2,7.8Z"/>
          <path class="cls-9" d="M13.1,19c-.4.5-.6,1-.7,1.2-.6,1.1-1.6.8-3.9,3-.3.2-.4.6-.4.9-.2,7.7,7.3,9.2,10.2,9.7,1,.2,1.4,1,1.5,2.1,0,0,0,0,0,0,2.9-9.2-7.8-9.4-6.8-16.9Z"/>
          <path class="cls-4" d="M39.6,18.5c-.2-1-.4-2-.8-3.2-1.2-3.4-7.7-13.9-10.1-14.3s-2.3,5.5-3,10.2c0,0-.1,0-.2,0,0,1.1-.1,2.1-.1,3,1.2,2,8.6,6.9,14.2,4.3Z"/>
          <path class="cls-9" d="M15.8,21c.6-2.1,3.3-1.7,4.6-1-2.5,2.6-4.6,1-4.6,1Z"/>
          <g>
            <path class="cls-9" d="M44.7,64.5c-6.5,17.4-12.8,12.4-13.1,10.3.2,4.3.1,9.1-.7,16.3-4.2.1-5.1,4.6-4.3,7.9,2.7,0,5.9,0,9.5,0,2,0,4.2-7.6,5-13.4,1.9-5.8,4.6-18.5,4.9-20.4.3-1.9-1-1.8-1.4-.6Z"/>
            <path class="cls-9" d="M31,91.1c.8-7.2.9-12,.7-16.3,0,0,0,0,0-.1-1-.5-4.4-2.2-7.6-6.4.3,11.1.9,13.8.8,22.7-7.7-.3-7.3,7.9-4.5,8,1.6,0,3.7,0,6.3,0-.7-3.3.2-7.8,4.3-7.9Z"/>
          </g>
          <path class="cls-1" d="M25.6,11.1c0,1.1-.1,2.1-.1,3,.9,1.6,5.9,5,10.7,5s2.4-.2,3.5-.8c1,5.4.4,9,1.7,12.5,1.5,4.1,2.7,5.5,10.4,9.5,14.9,7.7,28.4,14,26.4,45.8-.8,3.5-3.2,7.4-9.2,7.8-.3,0-.6,0-.9,0-5.9,0-13.5-3.6-17.3-3.7-.3,0-.6,0-.9,0-3.4,0-4.6.9-4.6.9-1.9-.9-3.7-4-4-5.4,0-.1,0-.2,0-.4,1.9-5.8,4.6-18.5,4.9-20.4.2-1-.1-1.5-.5-1.5s-.7.3-.9.8c-3.7,10-7.4,12.6-9.9,12.6s-3.2-1.6-3.1-2.5c0-5-.7-7.6-1.3-7.6s-1.1,2-1.1,6.2c-1.5-1-3.4-2.6-5.3-5.1-11.3-11.6-3.7-26.6-4.2-32.2,0,0,0,0,0,0,2.9-9.2-7.8-9.4-6.8-16.9,1.6-2.5,5.9-7.7,12.5-7.9M25.8,10.9h-.3c-6.9.2-11.2,5.7-12.7,8h0s0,.1,0,.1c-.5,3.6,1.6,5.6,3.6,7.5,2.4,2.3,4.7,4.5,3.2,9.2h0s0,.2,0,.2c.1,1.4-.3,3.4-.8,5.8-1.4,7.1-3.5,17.8,5,26.6,1.6,2,3.4,3.8,5.3,5.1l.4.3v-.5c0-4.8.6-5.9.8-6,.3,0,1,2,1,7.4,0,.5.3,1.1.8,1.6.4.4,1.3,1.1,2.6,1.1,2,0,6-1.7,10.2-12.8.1-.4.4-.7.6-.7s.1,0,.2,0c0,0,.2.3,0,1.1-.3,1.9-3.1,14.5-4.9,20.3h0s0,.1,0,.1c0,0,0,.2,0,.3h0c.3,1.5,2.2,4.8,4.2,5.7h.1c0,0,.1,0,.1,0,0,0,1.2-.8,4.5-.8s.6,0,.9,0c1.6,0,4,.8,6.5,1.5,3.5,1,7.4,2.2,10.8,2.2s.6,0,.9,0c6.7-.4,8.8-5.2,9.4-8,2-31.3-10.8-37.9-25.6-45.6l-.9-.5c-7.6-3.9-8.7-5.3-10.3-9.4-.7-1.9-.8-3.8-1-6.1-.1-1.8-.3-3.9-.7-6.3v-.3c0,0-.4.1-.4.1-1,.5-2.2.7-3.4.7-4.7,0-9.4-3.3-10.4-4.9,0-.8,0-1.8.1-3v-.3h0ZM25.6,11.4h0,0Z"/>
        </g>
      </g>
    </g>
    <g id="Calque_11" class="cls-18">
      <g>
        <path class="cls-3" d="M94.6,67.4c-4.7-14-17.9-21.9-20-30.2-2.5-9.7,4.8-11.2,4.4-14.5-.5-4.8-5.6-2.8-8.6.6-3,3.3-5.3,6.5-5.2,11.4.2,15.2,21.3,24.3,21.5,38.7,0,0-.3,12.3-9,14.3.8-11.4,0-22.5-17.3-39.9-.2-.2-.4-.4-.7-.7,0,0,0,0,0,0-.5-.2-1-.2-1-.2.3.8.9,1.4,1.9,5.1-1.6.5-7.5-.3-11.4-2.2,1.5,7.7-1.9,14.2-4.2,17.5-1.3-1.1-1.3-1.7-2.8-5.9-.9,3.6-2.9,7-4.8,9.5,0,0,0,0,0,0,.9,4,1.9,12.2,4.4,14.3,2.6,0-1.9-12.9,14.2-20.8,4.8-.2-2,1.9-5.5,6.4-3.5,4.5-6.7,16,3,18.7,9.7,2.8,4.7,4.2,1,2.6s-10.3-1.8-12.5-.8c0,0,0,0,0,0,0,0,.2,0,.3.1-5.4,1.4-4.2,7.1-.4,7.1s22.9.1,30.3.1c12.4,0,28.8-12.2,22.4-31.5Z"/>
        <path class="cls-3" d="M36.8,72s0,0,0,0c-.9,1-1.7,1.8-2.4,2.4-1-1.2-2.8-4.4-3.9-7.5.2,2.3-.7,6.9-4.3,11.9.3,4.3.2,7.2,0,11.9-3.6,0-7.8,2.7-7.5,7.9,0,0,0,0,0,0,3.9,0,9,0,13.8,0,1.5-2.3,3.1-6,4.1-10,0,0,0,0,0,0,.3-5.9.8-13.3.4-16.7Z"/>
        <path class="cls-5" d="M54.5,92.3c3.8,1.6,8.7.2-1-2.6-9.7-2.8-6.5-14.3-3-18.7,3.5-4.5,10.2-6.5,5.5-6.4-16.1,7.9-11.6,20.8-14.2,20.8-2.4-2.2-3.5-10.3-4.4-14.3,0,0,0,0,0,0-.2.3-.5.6-.7.9,0,0,0,0,0,0,.5,3.3-.1,10.7-.4,16.7,0,0,0,0,0,0,0,0,0-.2,0-.2,2,1.3,3.4,2.1,5.5,3.1,0,0,0,0,0,0,2.2-1,8.7-.8,12.5.8Z"/>
        <path class="cls-5" d="M26.1,90.7c.3-4.7.4-7.6,0-11.9,0,.1-.1.2-.2.3-1.9-1.5-6.5-6.3-9.3-11.4.5,9,1.9,6.7,1,22.7-8.1-.4-7.8,8.2-4.3,8.2s3,0,5.2,0c0,0,0,0,0,0-.3-5.2,3.9-7.8,7.5-7.9Z"/>
        <path class="cls-6" d="M58.8,47c.3.8.9,1.4,1.9,5.1-1.6.5-7.5-.3-11.4-2.2,1.5,7.7-1.9,14.2-4.2,17.5-1.3-1.1-1.3-1.7-2.8-5.9-1.4,5.7-5.4,10.8-8,12.9-1-1.2-2.8-4.4-3.9-7.5.2,2.4-.8,7.1-4.5,12.3-2-1.6-7.2-7.1-9.9-12.6-.4.4-.8,2.2-2,3.8-1-.8-5.7-7-5.1-16.9-1.1.5-2.1,1.1-3.6,1.6-1-11.1,1-13.8,6.3-19.7-3.2-.6-7.8-3.1-7.6-11.3s.2-.7.4-1c2.4-2.3,3.3-3,3.8-4.2s-.3-6.4,6.1-8.6c-.4-5,.3-7.2,1.3-8.6,1.4-2.1,10,6.6,10.8,6.9,1.1-1.1,6.2-7.3,8.8-7.3s2.8,2.4,3.8,11.2c1.1,8.4,5.1,14.2,8.7,16.2s4.9,2.3,5.8,2.3c-.4,2.7-3.3,3.1-4.2,3,0,1.4.1,2.4.7,2.6s8.6,4,10,10.7c-.5-.2-1-.2-1-.2Z"/>
      </g>
    </g>
    <g id="Calque_12" class="cls-18">
      <path class="cls-10" d="M36.4,86.6v-.2c0,0,0,.1,0,.2Z"/>
      <path class="cls-2" d="M97.4,74.1c-.4-16.4-14.5-23.8-14.1-31.9,1.3,1.8,8.4,3.1,8-4-2.3-13.6-27.5-12.1-28,2.7-.5,14.8,14.4,21.7,15.2,33.4.5,6.7-2.5,11-4.1,10-.7-22.4-14.9-34.9-21.5-39.5-7.2-5-10.6-5.4-13.1-9-2.5-3.6-4.5-4.1-4.4-11,0-3.4,2.2-2.7-3.2-14.8-1.2-3.5-4.4-9-6.8-9-2.7,0-1.4,7-2.3,7s-4.1-6.3-6.8-6.2c-2.4,0-1.3,4.5-.9,9.3-7,.5-7.5,8-8.1,9.2-.6,1.2-2,1.1-4.4,3.3-.3.2-.4.6-.4.9,0,.8,0,1.6.1,2.2,1.4-1.9,2.1-1.1,3.6-2.5,1.5-1.4,2.4-3.5,2.9-3.2.5.3,1,3.6,4.3,5.9s10.5,3.2,9.6,6.8c-.9,3.6-4.4,13.5-2.7,20.7,1.6,7.2,4.7,14.8,5.3,16.7.9,4.8,1.6,17.5,1.3,19.6-2.9,0-7,3.8-4.5,8.3,2.7,0,5.9,0,9.5,0,2,0,3.5-6.5,4.3-12.4,1-7,2.2-18,1.7-25.3,0-2.7,1.6-3.2,1.8.6.2,3.8-.8,16.9-.7,21.1.9,0,1.6.5,1.6.2-.5-7.9,5.3-18.2,13.3-18.2,1.7,0,1.4,1.5-.8,1.3-1.6-.2-9.6,6.2-8.7,16.8.3,2.8,4.3,7.1,9.8,7.5,2.4.3,3.1,2.7-.6,1.8s-11.1-1.2-12.6-.7c-4.3,2.2-3.5,7.6,0,7.6s25.4-.4,32.5-.4c15.8-1,23.7-18.8,23.6-24.6"/>
      <path class="cls-15" d="M53.8,92.2c3.7.9,3.1-1.5.6-1.8-5.5-.5-9.5-4.7-9.8-7.5-.9-10.6,7.1-17,8.7-16.8,2.2.3,2.5-1.2.8-1.3-8,0-13.8,10.2-13.3,18.2,0,.3-.7,0-1.6-.2,0-4.2.9-17.3.7-21.1-.2-3.8-1.7-3.3-1.8-.6.4,7.3-.8,18.3-1.7,25.3v.2c.3,1.2,2.9,3.9,4.9,4.8,1.5-.5,8.9-.2,12.6.7Z"/>
      <path class="cls-7" d="M25.7,71c-.6-1.9-3.6-9.5-5.3-16.7-1.6-7.2,1.9-17.1,2.7-20.7.9-3.6-6.3-4.6-9.6-6.8s-3.8-5.5-4.3-5.9c-.5-.3-1.4,1.8-2.9,3.2-1.5,1.4-2.2.6-3.6,2.5.7,5.5,5,5.5,7.7,6,10.8,5.2-5.6,14.7,9.4,33.3,2.3,2.4,1.6,1.6,5.8,5.1Z"/>
      <path class="cls-12" d="M27,90.6c.3-2.2-.4-14.8-1.3-19.6-4.2-3.5-3.5-2.7-5.8-5.1.3,11.3.6,16.1.5,25-7.7-.3-7.4,8.1-4.2,8.1s3.7,0,6.3,0c-2.5-4.4,1.6-8.3,4.5-8.3Z"/>
      <path class="cls-14" d="M16.8,20.4c.8.9-1.4,3.2-2.9,1.9-.3-1.4,1.2-3.5,2.9-1.9Z"/>
    </g>
  </g>
</svg>