<?xml version="1.0" encoding="UTF-8"?>
<svg xmlns="http://www.w3.org/2000/svg" version="1.1" viewBox="0 0 100 100">
  <defs>
    <style>
      .cls-1 {
        fill: #1b3b44;
      }

      .cls-2, .cls-3 {
        fill: #fff;
      }

      .cls-4 {
        fill: #0c1b1e;
      }

      .cls-5 {
        fill: #f26052;
      }

      .cls-6 {
        stroke: #000;
        stroke-linecap: round;
        stroke-linejoin: round;
      }

      .cls-6, .cls-3 {
        stroke-width: .2px;
      }

      .cls-6, .cls-7 {
        fill: #1b3b44;
      }

      .cls-8 {
        display: none;
      }

      .cls-3 {
        stroke: #1b3b44;
        stroke-miterlimit: 10;
      }
    </style>
  </defs>
  <!-- Generator: Adobe Illustrator 28.7.7, SVG Export Plug-In . SVG Version: 1.2.0 Build 194)  -->
  <g>
    <g id="Calque_1" class="cls-8">
      <g>
        <path class="cls-3" d="M81.2,54.9c-1-3.7,11.3-7.2,11.1-18.9-.2-11.7-4.4-13.4-5.5-14.3,1.2-8.3-.2-20.4-3.8-21.2s-10.8,9.4-12.9,11.5c-4.1-.9-11.5-1.2-14.2.7-7.9-7-13.5-11.4-16.5-10.8s-7,12.3-.7,24.8c-3.4,9-3.1,18.3,4.3,24.2,6.9,4.2-1.8,6.7-4.8,8.7s-18.1,9-17.4,23.8c-.6.1-1.8-.7-1.8-9.4s8.5-13.9,8.5-26-6.8-15.4-14.1-14.9c-4.1.5-3.1,7.8-.4,8.9s6.1,6.6,3.9,10.4c-2.8,7.7-13.1,15.7-7.9,31.4,5.2,15.8,17.6,15.5,20.9,15.8s24.2.2,25.8-.7,3-2.3,3.9-3c1,.8,2.1.4,2.9-.9,1.5,1.7,3.6,4.5,5.4,4.6s15.8-.5,18.7-.4c2.9,0,5-7.1-5.3-10.1-.4-3.9-1-7.8-1.6-10.1,3.4-8.3,2.9-10.5,1.4-24Z"/>
        <path class="cls-7" d="M63.2,32.3c.9,1.7,2.8.6,1.8-1.1s-2.5-3.6-4.8-3.4-4.3,2.3-5.5,3.8c-1.5,1.8.6,2.7,1.6,1.4.7-.6,2-2.6,4.1-2.6s2.6,1.4,2.9,1.9Z"/>
        <path class="cls-7" d="M79.1,29.8c-.9,1.3-2.5,0-1.6-1.4s2.2-2.8,4.2-2.6,3,.8,4,2c1.2,1.4-.1,2.7-.9,1.6-.6-.5-1.2-1.4-2.9-1.4s-2.3,1.1-2.7,1.8Z"/>
        <path class="cls-7" d="M69,35.2c-.4-1.9.4-2.7,3.7-2.7s3.2.8,3.2,1.6c0,1.3-1.6,1.3-1.5,2.7.1,1.5,1.4,3.2,3.7,3.2s2.2-.4,2.5-1,2.3-.1,1.2,1.6-4.2,8.4-9.1,8.5-8.8-5.3-9.5-6.9c-.7-1.6.2-3.5,2-1.8s3.1,1.1,4.3,1.1,4.2-1.1,3.3-4.4-3.7-.7-3.9-1.9Z"/>
        <path class="cls-2" d="M72.2,47.1c1.9,0,4.9-1.5,4.1-2.9-1.1-1.8-2.2-.2-4.1-.1s-4.6-1.4-4.7-.4,1.2,3.6,4.7,3.5Z"/>
        <path class="cls-7" d="M46,91.8c-1.8-2,5.8-1.7,3.3-10.1-2.6-8.4-9.2-6.9-10.7-6.8s-1.3-2.2,1.4-2.4,10.7,1.9,11.5,8.8c.8,6.9-1.6,7.8-1.1,8.7s5.6,0,5.9,3.5c.3,3.6.7,4.8-.8,4.5s.3-3.2-1.7-5.2c-2-2-6.8,0-7.7-1Z"/>
        <path class="cls-7" d="M49.1,97.7c0,.8,1.1,1.1,2.2.4s1-2.6.1-3.1-2.3,1.9-2.3,2.7Z"/>
        <path class="cls-7" d="M55,83.2c0-1.6,2-1.5,2.5,1s2.7,6.6,3.6,8.6-1,4-2.4,1.1-3.9-7.2-3.7-10.7Z"/>
        <path class="cls-7" d="M72.5,96.7c0-2.1,1.6-1.5,1.7,0s0,2.2-.8,2.2-.8-.4-.8-2.2Z"/>
        <path class="cls-7" d="M84.6,95.8c-.6-.7,0-2.1,1.1-.9s.8,2.9.6,3.6-2.1.3-1.6-.4.7-1.4,0-2.3Z"/>
        <path class="cls-1" d="M77.3,98.1c1,0,1.5-1.5.3-4.7s-4.2-3.7-4.5-5.1-1.8-8.3-1.9-11.9-2.3-1.7-2.2.2,1.6,11.3,2.1,12.5,4.2,4.1,4.9,5.3,0,3.7,1.3,3.7Z"/>
      </g>
    </g>
    <g id="Calque_2" class="cls-8">
      <g>
        <path class="cls-5" d="M83.6,38.3c0-5.2,6.6-4.8,5.9-10.1-.7-5.3-7-3.6-9.5-1.8s-9.3,8.7-1.7,21.3,14.7,17,4.7,28.5c-.8,0-1.6,0-1.6,0,0,0,.1-17.9-20.1-27.7-2.7-1.8-3.4-6.9-3.4-6.9,5.5-6.1,8.3-12.1,5.7-19.9,3.1-11,1.8-20.2.5-20.5s-4.2.4-13.1,10.1c-4-1.1-9.1-1.1-10.9-.5C36.3,3.4,31.3,1.2,29.7,1.2s-3.9,2.2-3.9,13.9c-1.2.9-2.9,3-3.1,4.6-3.7-.6-5.6.3-5.5,1.2,0,.9,1.1,1.1,4.2,1.4,0,.4-.2.9,0,1.4-2,0-3.6.5-3.7,1.5-.1,1,1.2,1.8,3.6,1.8,0,2.1.5,5.9,4.8,12.1.9,9.3-2.4,9.3-2.5,21.5.9,0,.2.6,1.6,3.4,1.3,2.7,6.4,10.7,9.8,11.3,1,.1,0-3.3,1.5-7.7.2-.6,1.8-.9,1.5.4-.3,1.3-.4,9.4-1.9,9.4s-.6,0-1-.3c-.7,2.2-3.1,13.2-5.9,14.8-2.8,1.6-6.8,3.4-4,6.9h2.1c-.2-2.1.7-3.4,1.4-3.9.7-.4,1,.1.3,1-.7.8-.6,2-.7,2.9h7.3c2,0,3.5-1.8,8.4-11,0,0,.2.1.3.2.7-1.9,5-11.3,5.3-14s1.2-1.1,1,.2c-.1,1.3-2.1,7.8-2.4,8.8-.4,1-.6,1.3,1.3,1.5,1.8.2,5.5.4,6.4.7.9.4.9.2.4-1s-2.3-8.2,1-12.7c3.5-4.7,6-6.6,7.3-6.3,1,.3.6,1.3-.1,1.8s-7,5.5-7.1,10.4c-.1,4.8,1.5,9.3,4.9,11.9,3.4,2.6,5.2,1.9,6.1,1.9s1.2,1.6-.3,1.5c-.9,0-3.1,0-5-.1-2.6,1.3-4.5,5.9-.6,6.4h9.9s4.8.4,8.4-13.8c13.6,0,15.7-12.2,15.7-19.9,0-11.7-12.6-21.6-12.6-26.8Z"/>
        <path class="cls-7" d="M28.5,94.9c-.7.4-1.6,1.8-1.4,3.9h1.1c0-1,0-2.1.7-2.9.7-.8.4-1.4-.3-1Z"/>
        <path class="cls-7" d="M65.4,94.9c-.7.4-1.6,1.8-1.4,3.9h1.1c0-1,0-2.1.7-2.9.7-.8.4-1.4-.3-1Z"/>
      </g>
      <path class="cls-7" d="M46.1,24.1c-.8,1-2.2.1-1.3-.9s2.1-2.1,3.9-1.7,3,1.9,3.8,2.9c1,1.3-.7,1.7-1.3.8-.5-.5-1.3-1.8-2.8-2s-2.1.7-2.3,1Z"/>
      <path class="cls-7" d="M32.7,21.9c.6,1.2,2,.2,1.5-1s-1.5-2.5-3.1-2.6-2.5.4-3.5,1.2c-1.1,1-.2,2.2.6,1.4.5-.4,1.1-1,2.5-.9s1.7,1.1,2,1.7Z"/>
      <path class="cls-7" d="M40.3,26.2c.3-1.6-.7-1.6-2.6-1.6s-2.7,0-2.7.6c0,1.1,2,1.6,1.9,2.8s-.2,2.8-2.1,2.8-3-.5-3.3-.9-1-.4-.6,1.2,2.8,7.2,6.7,7.3,7.2-4.4,7.7-5.7-.3-2.1-1.9-.8-2.1.5-3,.3-3-1.2-2.3-3.9,1.7-.9,2-1.9Z"/>
      <path class="cls-5" d="M38.3,36.9c-1.6,0-2.7-.1-2.5-1.2.4-1.8,1.3-1,2.9-1.3s4.1-1.3,4.2-.6-1.7,3.1-4.6,3Z"/>
      <g>
        <path class="cls-5" d="M57.1,87.3c-.6-.4-10.2-1.7-10.5-.9-.3.6-.4,2.3-1,2.9.2.4.3,1,.3,1.9-2.4,2.5-7.9,5.9-2.3,7.5,2.2,0,3.4,0,5.8,0,2.4,0,4.8-3.3,8-11.2,0-.2-.2-.3-.3-.3Z"/>
        <path class="cls-7" d="M68.1,91c-.9,0-2.6.7-6.1-1.9-3.4-2.6-5-7.1-4.9-11.9.1-4.9,6.4-10,7.1-10.4s1.2-1.5.1-1.8c-1.2-.4-3.8,1.6-7.3,6.3-3.3,4.5-1.5,11.4-1,12.7s.5,1.4-.4,1c-.9-.4-4.6-.6-6.4-.7-1.8-.2-1.6-.5-1.3-1.5.4-1,2.3-7.5,2.4-8.8.1-1.3-.7-2.9-1-.2s-4.6,12.1-5.3,14c.5.3,1,.6,1.4,1.3.6-.6.8-2.3,1-2.9.3-.8,10,.5,10.5.9,0,0,.2.2.3.3,0-.1,0-.2.1-.3,1.8,2.9,4.5,4.6,6.4,4.8-.4,0-.7.2-1.1.3,1.8,0,4,0,5,.1,1.5,0,1.2-1.5.3-1.5Z"/>
      </g>
      <path class="cls-5" d="M3.8,68.9c0,3.1,8.4,7.1,11,0,7.5,2,9.6,5.7,13.8,5.7.8.2,1.8,0,2.4,0-1.4-1.2-8.5-5.8-8-13.5-8.2-4-16.9-3.3-19.2,7.8"/>
      <path class="cls-7" d="M37.8,68c.3-1.3-1.3-1-1.5-.4-1.5,4.5-.4,7.9-1.5,7.7-3.3-.6-8.4-8.6-9.8-11.3-1.3-2.7-.6-3.4-1.6-3.4,0,.2,0,.4,0,.5,0,0-.2,0-.4-.1-.6,7.7,6.5,12.3,8,13.5,1.2.9,3.2,2.1,3.9,2.5.2.1.7.3,1,.3,1.5,0,1.6-8,1.9-9.4Z"/>
      <path class="cls-7" d="M32,97.2c0-1.5.4-1.9,1.2-2.4s1.3,0,.3.7-.5,1.2-.6,2.1c0,.8-.8,1-.8-.5Z"/>
      <path class="cls-7" d="M7.4,71.9c-.8-1-.8-2.6,2.5-4.1.7-.2.9.8-.3,1.5s-1.3,1-1.2,1.5-.3,2-1,1Z"/>
    </g>
    <g id="Calque_3">
      <g>
        <path class="cls-6" d="M80,85.9c.5-6.6.8-19.4-8.4-31-6.3-9.4-15.4-12.2-15.2-18.5.3-8.2,1.5-5.9,1.5-11,0-5.2-1-5.3-1.5-7.1.4-3.4,1.4-15.8-1.6-17.1-2.6-.7-8.9,6.1-11.2,8.1-3.3-.8-9-.6-11.1,0-3.2-3.6-8.2-8.4-11.3-8s-1.4,14.6-1.2,17.2c-1.2,2.3-2.6,4.5-2,9.6s4.3,5.2,4.4,8.5-3.2,9.8-2.9,19c.2,8.2,2.6,11.5,3.4,12.6.3-.8,1-1,1.3-.2.4,1.4,4,7.3,12,11.4.7.3,1.2.1,1.2-.5,0-.6,1.1-11.5.8-12.7-.3-1.1,1.5-1.8,1.4,0,0,1.8-.5,11-1.1,13.2-.6,2.2-.9,9.3-.9,10.1s-1.5,1.6-2.3,2.3c-.8.7-1.9,1.3-2.3,2.5-.3,1.2.4,3-.7,4,0,0,0,0-.1,0,1.5,0,3.1,0,4.8,0-.3-1.5,0-3.8,1-4.5.9-.7.6.5.4,1.4s-.5,2.4-.1,3.1h0c1.5,0,3.1,0,4.6,0h0c1.5-1.5,2.4-2.3,2.9-3.3.5-1.1,4.8-13.5,5.1-14.1,0-2.3,1.6-12.9,10.6-17.7,1.4-.9,3.9-.1.6,1.8-3.3,1.9-9.8,8.6-8.8,15.6,1,7,3.4,7.9,4.2,8.2,1.6,0,13.4-.3,14.6-.5s.9,1.9-1.4,1.9-13,.2-16,.3c-5.1,0-7.9,4.3-4.8,7.8,0,0,0,0,0,0,11.2,0,21.5,0,22.5.1,2.2,0,14.3-1.9,7.5-12.9Z"/>
        <path class="cls-6" d="M31.3,96c0-1.3-.2-2,.3-3.2.6-1.2,1.3-1.6,1.5-2.6.3-1,.9-8.6.5-9.4-.3-.7-10.2-8.4-10.6-10.9h0c.1,4.9.7,18.9.8,21.1-3.9,1.1-7.3,4.6-3.6,7.5.5,0,1.5,0,2.8,0,0,0,0,0,0,0,.1-3.1.8-3.1,1.4-4.1s1.3,0,.7.6c-.6.5-1,2-.9,3.6,1.5,0,3.3,0,5.3,0,1-.9,1.6-1.4,1.7-2.6Z"/>
        <path class="cls-4" d="M33.1,94.5c.3-1.2,1.4-1.8,2.3-2.5.8-.7,2.3-1.6,2.3-2.3s.3-7.9.9-10.1c.6-2.2,1-11.4,1.1-13.2,0-1.8-1.7-1.1-1.4,0,.3,1.1-.8,12.1-.8,12.7,0,.6-.5.8-1.2.5-8-4.1-11.6-10.1-12-11.4-.2-.9-1-.6-1.3.2,0,.1.2.2.2.3,0,.3,0,.8,0,1.4h0c.3,2.6,10.2,10.2,10.6,10.9.3.7-.3,8.4-.5,9.4-.3,1-1,1.4-1.5,2.6-.6,1.2-.3,1.9-.3,3.2,0,1.3-.7,1.7-1.7,2.6.8,0,1.7,0,2.6,0,0,0,0,0,.1,0,1.2-1.1.4-2.8.7-4Z"/>
        <path class="cls-4" d="M25.2,94.9c.6-.5-.1-1.6-.7-.6s-1.2,1.1-1.4,4.1c0,0,0,0,0,0,.4,0,.7,0,1.2,0,0-1.6.3-3.2.9-3.6Z"/>
        <path class="cls-4" d="M38.4,95.5c.2-.9.6-2.1-.4-1.4-.9.7-1.3,3-1,4.5.4,0,.8,0,1.2,0h0c-.3-.8,0-2.3.1-3.1Z"/>
        <path class="cls-4" d="M54.8,90.9c3-.1,13.7-.3,16-.3s2.6-2,1.4-1.9-13,.5-14.6.5c-.9-.4-3.2-1.2-4.2-8.2-1-7,5.5-13.7,8.8-15.6,3.3-1.9.8-2.7-.6-1.8-9,4.8-10.5,15.4-10.6,17.7-.3.6-4.6,13.1-5.1,14.1-.5,1.1-1.3,1.8-2.9,3.3h0c2.4,0,4.8,0,7.1,0,0,0,0,0,0,0-3.1-3.5-.3-7.8,4.8-7.8Z"/>
        <g>
          <path class="cls-4" d="M43.4,21.9c-.5.9-1.9.5-1.3-.5s1.5-2.1,3.1-2.1,3,1.1,3.8,1.8c1.1.9-.3,1.5-1,.8-.5-.3-1.5-1.3-2.8-1.2s-1.7.9-1.9,1.2Z"/>
          <path class="cls-4" d="M31.2,22.5c.6,1,2.1.3,1.5-.8s-1.6-2.2-3.3-2.4-2.6.2-3.6.9c-1.2.8-.2,1.9.6,1.2.5-.3,1.2-.8,2.6-.6s1.8,1.1,2.1,1.6Z"/>
          <path class="cls-4" d="M33.8,24.9c.3-2,1.4-1.5,3.2-1.5s2.9,0,2.8,1.5-2.3,2-2.5,2c.3,2.5.8,4,3.5,4s3.1-1.5,3.6-2.1,2-.3.9,1.2-2.7,2.4-4.3,2.4-4-1.2-4.2-2.1c-1.2,1.7-2.6,1.8-3.8,1.9s-2.9-.6-3.3-2.2.6-1.6,1.1,0,1.1,1.2,2.1,1.1,3.2-.4,3.2-3.9c-1.7-.7-2.4-1.7-2.3-2.3Z"/>
        </g>
      </g>
    </g>
  </g>
</svg>